<svg id="Layer_1" xmlns="http://www.w3.org/2000/svg" viewBox="0 0 291 66"><style>.st0{fill:#636466}.st1{fill:#007dba}.st2{fill:#b3d334}.st3{fill:#00bdf2}.st4{fill:#ed1c24}</style><title>Artboard 3</title><path class="st0" d="M101.8 24l-.8 5.3c-2.9-2.3-6.5-3.6-10.3-3.7-7.2 0-10.9 5.4-10.9 13.2S83.7 52 90.6 52c2.6 0 5.2-.6 7.6-1.7v-8.6h-7.8l-.8-4.7h13.7v16.3c-.4.4-4.8 3.2-12.3 3.2-9.3 0-16.5-5.9-16.5-17.8 0-11.2 6.6-17.8 16.3-17.8 7 .2 10 2.4 11 3.1m6.6 25.4V32.1h4.9v15.6c0 2.8.9 4.6 3.9 4.6 2.5 0 5.1-2.4 6.1-3.6V32.1h4.9v24.1H124l-.4-3.1c-1.1.9-4.1 3.6-8 3.6-4.9 0-7.2-3-7.2-7.3m30.6 6.8h-4.9V21.4L139 20v36.2zm18.1-31.1c-.9-.2-1.7-.3-2.6-.3-2 0-3 1.1-3 3.4V32h4.7l.6 4.2h-5.3v19.9h-4.8V36.2h-3.6V32h3.6v-4c0-5.1 2.9-7.4 7.3-7.4.8 0 1.6.1 2.5.2l.6 4.3zm37.6 7.3c0 6.9-5.1 10.8-11.7 10.8h-6.6v12.9h-5.2V21.6h11.7c7.9 0 11.8 5 11.8 10.8m-18.2 6.3h5.5c5.2 0 7.4-2.7 7.4-6.3s-2.4-6.3-7.4-6.3h-5.5v12.6zm29.1 18c-6.2 0-11.2-4-11.2-12.5s5.1-12.5 11.2-12.5c6.4 0 11.1 4.4 11.1 12.5 0 8.3-5 12.5-11.1 12.5m0-4.2c3.8 0 6.2-3.6 6.2-8.4s-2.4-8.4-6.2-8.4c-4.2 0-6.2 4-6.2 8.4 0 4.7 2.2 8.4 6.2 8.4m45-20.4L243 56.2h-4l-5.1-16.7-5 16.7h-4l-7.7-24.1h5l4.9 16.5 5-16.5h4.1l5 16.5 4.9-16.5h4.5zm5.4 12.7c0 2.6 1 7.6 6.8 7.6 3.1-.1 6.2-1.3 8.5-3.4l.7 4.3c-1 .8-4 3.3-9.8 3.3-6.6 0-11.1-4.5-11.1-12.6 0-8.4 5.1-12.5 10.7-12.5 7.2 0 10.3 5.9 10.3 12.1v1.2H256zm11-3.8c-.3-1.6-1-5.5-5.3-5.5-3.5 0-5.1 3.1-5.5 5.5H267zm14-4.6c1.8-2.9 4.9-4.6 8.3-4.8l.7 4.4c-3.8 0-6.5 1.5-8.8 5.3v14.9h-4.9V32.1h4.1l.6 4.3z"/><path class="st1" d="M.2 56.2h63.2L21.2 45.6.2 56.2z"/><path class="st2" d="M8.1 42.4l-8 13.8 21-10.5-13-3.3z"/><path class="st3" d="M21.1 45.6l42.2 10.5-14.2-24.5-28 14z"/><path class="st4" d="M31.7 1.5l-22 38 37.7-10.8L31.7 1.5z"/></svg>